<?xml version="1.0" standalone="no"?>
<!DOCTYPE svg PUBLIC "-//W3C//DTD SVG 20010904//EN"
 "http://www.w3.org/TR/2001/REC-SVG-20010904/DTD/svg10.dtd">
<svg version="1.0" xmlns="http://www.w3.org/2000/svg"
 width="1200.000000pt" height="546.000000pt" viewBox="0 0 1200.000000 546.000000"
 preserveAspectRatio="xMidYMid meet">

<g transform="translate(0.000000,546.000000) scale(0.100000,-0.100000)"
fill="#000000" stroke="none">
<path d="M0 2730 l0 -2730 6000 0 6000 0 0 2730 0 2730 -6000 0 -6000 0 0
-2730z m2490 461 l0 -1339 -48 -11 c-207 -44 -577 -76 -777 -68 -245 11 -417
51 -580 135 -71 37 -109 66 -181 137 -77 76 -98 105 -137 185 -135 273 -137
656 -7 929 151 316 427 487 830 516 86 7 235 -4 298 -21 l22 -6 0 441 0 441
290 0 290 0 0 -1339z m920 1034 l0 -295 -290 0 -290 0 0 295 0 295 290 0 290
0 0 -295z m1257 -556 c125 -14 236 -49 311 -99 64 -43 96 -79 132 -149 46 -91
49 -148 50 -893 0 -655 -1 -697 -17 -702 -54 -15 -359 -43 -607 -56 -235 -12
-408 -2 -527 31 -255 71 -373 230 -373 504 0 168 37 274 131 376 31 33 86 78
123 100 136 80 368 144 623 171 l119 12 -4 97 c-3 86 -6 100 -27 122 -35 38
-106 51 -232 44 -171 -10 -411 -72 -551 -143 -26 -13 -52 -24 -58 -24 -6 0
-10 75 -10 220 l0 220 38 19 c233 118 603 181 879 150z m1834 1 c360 -34 563
-184 626 -461 15 -66 17 -151 18 -744 l0 -670 -290 0 -290 0 -5 625 -5 625
-23 47 c-42 85 -107 113 -257 112 -58 0 -132 -7 -177 -18 l-78 -17 0 -690 0
-689 -287 2 -288 3 -3 876 -2 875 132 32 c353 83 678 116 929 92z m4084 -20
c373 -100 596 -384 635 -809 32 -345 -69 -655 -277 -853 -170 -161 -385 -238
-669 -238 -161 0 -266 16 -387 60 -293 107 -483 352 -537 692 -20 126 -8 390
23 511 91 344 329 572 677 648 122 27 418 21 535 -11z m-1640 10 c121 -11 423
-58 442 -69 8 -4 -20 -72 -86 -211 l-98 -205 -67 4 -67 3 6 -103 c4 -57 8
-369 8 -694 2 -617 -2 -700 -43 -862 -46 -177 -103 -276 -235 -408 -82 -82
-116 -109 -190 -147 -184 -95 -359 -131 -630 -130 -206 0 -344 20 -513 73
l-102 33 0 268 c0 147 2 268 5 268 3 0 29 -12 57 -26 260 -132 686 -162 881
-63 122 63 190 182 206 364 4 50 7 91 5 93 -1 2 -33 -8 -71 -21 -104 -38 -206
-51 -346 -44 -146 7 -248 31 -366 88 -69 34 -101 58 -176 133 -137 136 -198
263 -231 479 -48 311 39 622 229 823 193 204 443 310 842 357 70 9 439 6 540
-3z m-5537 -775 c2 -457 -1 -814 -8 -913 -17 -261 -53 -414 -133 -565 -81
-153 -186 -256 -365 -360 l-99 -57 -267 126 c-146 70 -266 130 -266 133 0 3
39 26 87 50 237 121 369 281 422 509 40 172 43 254 48 1055 l5 777 287 -2 286
-3 3 -750z"/>
<path d="M1610 3199 c-112 -20 -206 -78 -264 -162 -55 -80 -77 -155 -83 -282
-11 -235 57 -384 210 -460 95 -47 197 -62 332 -49 l100 9 3 462 2 462 -37 11
c-56 15 -200 20 -263 9z"/>
<path d="M4580 2573 c-210 -31 -302 -57 -357 -99 -46 -35 -63 -73 -63 -143 0
-53 4 -65 30 -95 51 -58 134 -73 310 -56 180 17 160 -9 160 211 l0 189 -27 -1
c-16 -1 -39 -3 -53 -6z"/>
<path d="M10163 3193 c-62 -22 -137 -94 -173 -166 -77 -157 -80 -451 -6 -612
40 -89 119 -163 198 -186 18 -5 66 -10 107 -10 216 -1 341 180 341 496 0 138
-19 230 -67 325 -42 81 -103 138 -173 159 -52 15 -176 12 -227 -6z"/>
<path d="M8278 3184 c-80 -19 -172 -67 -228 -120 -91 -85 -130 -194 -130 -364
0 -218 68 -349 218 -418 76 -34 216 -41 317 -15 l70 18 -3 370 c-1 204 -5 409
-8 458 l-6 87 -87 -1 c-47 0 -112 -7 -143 -15z"/>
</g>
</svg>
