<svg xmlns="http://www.w3.org/2000/svg" xmlns:xlink="http://www.w3.org/1999/xlink" width="200" zoomAndPan="magnify" viewBox="0 0 375 374.999991" height="200" preserveAspectRatio="xMidYMid meet" version="1.0"><defs><g/><clipPath id="a86442a947"><path d="M 153 160.316406 L 371 160.316406 L 371 228.265625 L 153 228.265625 Z M 153 160.316406 " clip-rule="nonzero"/></clipPath><clipPath id="3a67c80e77"><path d="M 199.835938 160.316406 L 364.5 160.316406 C 366.648438 160.316406 368.636719 161.472656 369.699219 163.339844 C 370.765625 165.207031 370.746094 167.503906 369.648438 169.351562 L 340.113281 219.230469 C 336.796875 224.828125 330.773438 228.265625 324.261719 228.265625 L 159.601562 228.265625 C 157.449219 228.265625 155.464844 227.109375 154.402344 225.242188 C 153.335938 223.375 153.355469 221.078125 154.453125 219.230469 L 183.988281 169.351562 C 187.304688 163.753906 193.328125 160.316406 199.835938 160.316406 Z M 199.835938 160.316406 " clip-rule="nonzero"/></clipPath></defs><g clip-path="url(#a86442a947)"><g clip-path="url(#3a67c80e77)"><path fill="#000000" d="M 149.101562 160.316406 L 375 160.316406 L 375 228.265625 L 149.101562 228.265625 Z M 149.101562 160.316406 " fill-opacity="1" fill-rule="nonzero"/></g></g><g fill="#000000" fill-opacity="1"><g transform="translate(0.0000045, 216.827837)"><g><path d="M 4 -40.046875 L 21.234375 -40.046875 C 27.523438 -40.046875 32.644531 -38.195312 36.59375 -34.5 C 40.539062 -30.800781 42.515625 -25.976562 42.515625 -20.03125 C 42.515625 -14.113281 40.507812 -9.296875 36.5 -5.578125 C 32.5 -1.859375 27.273438 0 20.828125 0 L 4 0 Z M 14.1875 -31.921875 L 14.1875 -8.125 L 21.453125 -8.125 C 24.585938 -8.125 27.15625 -9.21875 29.15625 -11.40625 C 31.15625 -13.601562 32.15625 -16.457031 32.15625 -19.96875 C 32.15625 -23.476562 31.101562 -26.347656 29 -28.578125 C 26.90625 -30.804688 24.238281 -31.921875 21 -31.921875 Z M 14.1875 -31.921875 "/></g></g></g><g fill="#000000" fill-opacity="1"><g transform="translate(40.625438, 216.827837)"><g><path d="M 17.453125 -31.1875 C 22.796875 -31.1875 26.8125 -29.546875 29.5 -26.265625 C 32.1875 -22.984375 33.359375 -18.484375 33.015625 -12.765625 L 11.328125 -12.765625 C 11.828125 -10.929688 12.703125 -9.515625 13.953125 -8.515625 C 15.210938 -7.523438 16.757812 -7.03125 18.59375 -7.03125 C 21.414062 -7.03125 23.878906 -8.082031 25.984375 -10.1875 L 31.1875 -5.09375 C 27.863281 -1.46875 23.378906 0.34375 17.734375 0.34375 C 12.734375 0.34375 8.753906 -1.082031 5.796875 -3.9375 C 2.847656 -6.800781 1.375 -10.597656 1.375 -15.328125 C 1.375 -20.097656 2.847656 -23.929688 5.796875 -26.828125 C 8.753906 -29.734375 12.640625 -31.1875 17.453125 -31.1875 Z M 11.15625 -18.078125 L 23.515625 -18.078125 C 23.515625 -19.953125 22.96875 -21.457031 21.875 -22.59375 C 20.789062 -23.738281 19.351562 -24.3125 17.5625 -24.3125 C 15.882812 -24.3125 14.472656 -23.75 13.328125 -22.625 C 12.179688 -21.5 11.457031 -19.984375 11.15625 -18.078125 Z M 11.15625 -18.078125 "/></g></g></g><g fill="#000000" fill-opacity="1"><g transform="translate(71.809684, 216.827837)"><g><path d="M 21.453125 0 L 11.328125 0 L -0.28125 -30.84375 L 9.90625 -30.84375 L 16.53125 -9.046875 L 23.234375 -30.84375 L 33.078125 -30.84375 Z M 21.453125 0 "/></g></g></g><g fill="#000000" fill-opacity="1"><g transform="translate(101.22011, 216.827837)"><g><path d="M 5.171875 -43.453125 C 6.148438 -44.429688 7.398438 -44.921875 8.921875 -44.921875 C 10.453125 -44.921875 11.703125 -44.429688 12.671875 -43.453125 C 13.648438 -42.484375 14.140625 -41.234375 14.140625 -39.703125 C 14.140625 -38.179688 13.648438 -36.925781 12.671875 -35.9375 C 11.703125 -34.945312 10.453125 -34.453125 8.921875 -34.453125 C 7.398438 -34.453125 6.148438 -34.945312 5.171875 -35.9375 C 4.203125 -36.925781 3.71875 -38.179688 3.71875 -39.703125 C 3.71875 -41.234375 4.203125 -42.484375 5.171875 -43.453125 Z M 13.796875 0 L 3.953125 0 L 3.953125 -30.84375 L 13.796875 -30.84375 Z M 13.796875 0 "/></g></g></g><g fill="#000000" fill-opacity="1"><g transform="translate(115.753509, 216.827837)"><g><path d="M 24.140625 -31.296875 C 27.535156 -31.296875 30.265625 -30.21875 32.328125 -28.0625 C 34.390625 -25.90625 35.421875 -23.035156 35.421875 -19.453125 L 35.421875 0 L 25.578125 0 L 25.578125 -16.703125 C 25.578125 -18.492188 25.085938 -19.914062 24.109375 -20.96875 C 23.140625 -22.019531 21.816406 -22.546875 20.140625 -22.546875 C 18.390625 -22.546875 16.953125 -21.972656 15.828125 -20.828125 C 14.703125 -19.679688 14.039062 -18.175781 13.84375 -16.3125 L 13.84375 0 L 3.953125 0 L 3.953125 -30.84375 L 13.84375 -30.84375 L 13.84375 -25.8125 C 16.019531 -29.394531 19.453125 -31.222656 24.140625 -31.296875 Z M 24.140625 -31.296875 "/></g></g></g><g fill="#ffffff" fill-opacity="1"><g transform="translate(172.684476, 216.827837)"><g><path d="M 48 0 L 39.015625 0 L 38.96875 -26.03125 L 29.359375 -4 L 22.71875 -4 L 13.109375 -26.03125 L 13.109375 0 L 4 0 L 4 -40.109375 L 15.15625 -40.109375 L 26.03125 -16.25 L 36.90625 -40.109375 L 48 -40.109375 Z M 48 0 "/></g></g></g><g fill="#ffffff" fill-opacity="1"><g transform="translate(221.492288, 216.827837)"><g><path d="M 17.796875 -31.296875 C 22.023438 -31.296875 25.3125 -30.3125 27.65625 -28.34375 C 30.007812 -26.382812 31.203125 -23.648438 31.234375 -20.140625 L 31.234375 0 L 21.578125 0 L 21.578125 -3.546875 C 19.546875 -0.878906 16.394531 0.453125 12.125 0.453125 C 8.882812 0.453125 6.3125 -0.441406 4.40625 -2.234375 C 2.5 -4.023438 1.546875 -6.351562 1.546875 -9.21875 C 1.546875 -12.15625 2.566406 -14.429688 4.609375 -16.046875 C 6.648438 -17.671875 9.578125 -18.5 13.390625 -18.53125 L 21.515625 -18.53125 L 21.515625 -19 C 21.515625 -20.519531 21.007812 -21.707031 20 -22.5625 C 18.988281 -23.425781 17.488281 -23.859375 15.5 -23.859375 C 12.71875 -23.859375 9.648438 -23 6.296875 -21.28125 L 3.484375 -27.8125 C 8.484375 -30.132812 13.253906 -31.296875 17.796875 -31.296875 Z M 15.15625 -6.234375 C 16.726562 -6.234375 18.101562 -6.625 19.28125 -7.40625 C 20.46875 -8.1875 21.210938 -9.207031 21.515625 -10.46875 L 21.515625 -13.21875 L 15.28125 -13.21875 C 12.300781 -13.21875 10.8125 -12.113281 10.8125 -9.90625 C 10.8125 -8.757812 11.191406 -7.859375 11.953125 -7.203125 C 12.722656 -6.554688 13.789062 -6.234375 15.15625 -6.234375 Z M 15.15625 -6.234375 "/></g></g></g><g fill="#ffffff" fill-opacity="1"><g transform="translate(252.562092, 216.827837)"><g><path d="M 14.984375 -31.296875 C 19.523438 -31.296875 23.757812 -30.132812 27.6875 -27.8125 L 24.3125 -21.40625 C 20.5 -23.457031 17.257812 -24.484375 14.59375 -24.484375 C 12.570312 -24.484375 11.5625 -23.78125 11.5625 -22.375 C 11.5625 -21.613281 12.113281 -20.972656 13.21875 -20.453125 C 14.320312 -19.941406 15.675781 -19.472656 17.28125 -19.046875 C 18.882812 -18.628906 20.476562 -18.101562 22.0625 -17.46875 C 23.644531 -16.84375 24.988281 -15.84375 26.09375 -14.46875 C 27.195312 -13.101562 27.75 -11.425781 27.75 -9.4375 C 27.75 -6.351562 26.546875 -3.941406 24.140625 -2.203125 C 21.742188 -0.460938 18.617188 0.40625 14.765625 0.40625 C 9.304688 0.40625 4.691406 -1.046875 0.921875 -3.953125 L 4.0625 -10.234375 C 7.6875 -7.679688 11.328125 -6.40625 14.984375 -6.40625 C 17.242188 -6.40625 18.375 -7.113281 18.375 -8.53125 C 18.375 -9.332031 17.828125 -10 16.734375 -10.53125 C 15.648438 -11.0625 14.320312 -11.535156 12.75 -11.953125 C 11.1875 -12.378906 9.625 -12.90625 8.0625 -13.53125 C 6.5 -14.15625 5.171875 -15.132812 4.078125 -16.46875 C 2.992188 -17.8125 2.453125 -19.492188 2.453125 -21.515625 C 2.453125 -24.609375 3.613281 -27.007812 5.9375 -28.71875 C 8.269531 -30.4375 11.285156 -31.296875 14.984375 -31.296875 Z M 14.984375 -31.296875 "/></g></g></g><g fill="#ffffff" fill-opacity="1"><g transform="translate(278.653804, 216.827837)"><g><path d="M 18.25 -31.1875 C 23.289062 -31.1875 27.351562 -29.742188 30.4375 -26.859375 C 33.53125 -23.984375 35.078125 -20.179688 35.078125 -15.453125 C 35.078125 -10.722656 33.53125 -6.90625 30.4375 -4 C 27.351562 -1.101562 23.289062 0.34375 18.25 0.34375 C 13.175781 0.34375 9.09375 -1.101562 6 -4 C 2.914062 -6.90625 1.375 -10.722656 1.375 -15.453125 C 1.375 -20.179688 2.914062 -23.984375 6 -26.859375 C 9.09375 -29.742188 13.175781 -31.1875 18.25 -31.1875 Z M 18.25 -23.34375 C 16.1875 -23.34375 14.515625 -22.597656 13.234375 -21.109375 C 11.960938 -19.617188 11.328125 -17.691406 11.328125 -15.328125 C 11.328125 -12.929688 11.960938 -11 13.234375 -9.53125 C 14.515625 -8.0625 16.1875 -7.328125 18.25 -7.328125 C 20.269531 -7.328125 21.921875 -8.0625 23.203125 -9.53125 C 24.484375 -11 25.125 -12.929688 25.125 -15.328125 C 25.125 -17.691406 24.484375 -19.617188 23.203125 -21.109375 C 21.921875 -22.597656 20.269531 -23.34375 18.25 -23.34375 Z M 18.25 -23.34375 "/></g></g></g><g fill="#ffffff" fill-opacity="1"><g transform="translate(311.84072, 216.827837)"><g><path d="M 24.140625 -31.296875 C 27.535156 -31.296875 30.265625 -30.21875 32.328125 -28.0625 C 34.390625 -25.90625 35.421875 -23.035156 35.421875 -19.453125 L 35.421875 0 L 25.578125 0 L 25.578125 -16.703125 C 25.578125 -18.492188 25.085938 -19.914062 24.109375 -20.96875 C 23.140625 -22.019531 21.816406 -22.546875 20.140625 -22.546875 C 18.390625 -22.546875 16.953125 -21.972656 15.828125 -20.828125 C 14.703125 -19.679688 14.039062 -18.175781 13.84375 -16.3125 L 13.84375 0 L 3.953125 0 L 3.953125 -30.84375 L 13.84375 -30.84375 L 13.84375 -25.8125 C 16.019531 -29.394531 19.453125 -31.222656 24.140625 -31.296875 Z M 24.140625 -31.296875 "/></g></g></g></svg>